<svg width="214" height="209" viewBox="0 0 214 209" fill="none" xmlns="http://www.w3.org/2000/svg">
<path d="M89.122 47.7037C89.7732 47.6763 90.4248 47.6571 91.0767 47.646C95.2978 47.6077 98.3398 48.3121 101.418 51.2669C105.909 55.578 104.82 61.9184 104.849 67.4747L104.894 86.6161C103.785 86.6333 102.676 86.6232 101.567 86.5862C101.447 80.3998 101.643 74.0577 101.564 67.8532C101.495 65.0967 101.733 62.2695 101.469 59.5272C100.635 50.8918 90.4482 49.2172 83.8751 53.0376C79.8269 55.3903 78.4156 58.3401 77.267 62.5667L75.6381 62.578C70.2408 62.6378 65.3316 65.7646 63.4788 70.7963C62.7514 72.7713 62.8576 74.7744 62.888 76.8364C56.188 80.0481 55.2875 82.8324 55.8219 89.87L55.7057 89.9463C52.9601 91.777 50.7875 94.415 51.3724 97.8265C51.6405 99.3906 52.2849 100.27 53.1798 101.543C52.1154 103.616 50.9247 105.067 51.1984 107.515C51.5261 110.446 53.58 111.679 55.6415 113.353C54.787 119.963 56.2976 122.257 62.5721 124.836C62.6059 128.74 62.8802 132.181 65.8947 135.04C69.3955 138.36 72.6284 139.06 77.2946 139.095C77.6499 140.212 78.0073 141.399 78.4802 142.468C79.9331 145.754 82.6802 148.33 86.1014 149.613C89.2207 150.815 92.9757 150.866 96.065 149.547C96.9904 149.071 97.7918 148.535 98.5489 147.822C99.8207 146.625 100.714 145.096 101.121 143.418C101.838 140.461 101.515 136.155 101.569 133C101.679 126.599 101.367 119.992 101.522 113.61C102.25 113.482 104.184 113.279 104.703 113.843C104.931 114.899 104.858 117.56 104.857 118.728L104.845 126.932L104.848 137.386C104.847 141.305 105.269 144.893 102.974 148.331C98.2643 155.438 87.8329 155.469 81.1809 151.099C78.4473 149.303 75.3913 145.886 74.7523 142.638C66.2572 141.335 59.0653 136.303 59.0193 127.262C53.6504 124.439 51.5903 120.767 51.7035 114.93C47.4036 110.68 46.2293 107.195 49.0113 101.683C46.2572 96.4308 47.6107 91.9814 52.1593 88.2181C51.611 81.7755 53.5937 78.0024 59.2337 74.6732C59.1813 70.7432 60.684 66.9453 63.4287 64.0711C66.407 60.9503 69.9654 59.3897 74.313 59.2553C76.2814 52.9692 82.415 48.181 89.122 47.7037Z" fill="white"/>
<path d="M145.943 70.4564C146.111 70.4508 146.279 70.4487 146.447 70.4502C148.926 70.4792 151.167 72.281 151.63 74.6567C151.886 75.8139 151.856 77.0034 151.93 78.1804C152.441 86.3622 153.31 94.5052 153.142 102.716C153.052 107.088 152.719 111.437 152.521 115.81C152.433 118.216 152.316 120.622 152.168 123.026C152.086 124.266 151.998 126.272 151.645 127.386C150.203 131.926 144.487 132.788 141.403 129.346C139.148 126.829 140.636 123.432 140.749 120.571L140.755 120.395C140.826 117.84 141.172 115.019 141.347 112.434C141.504 110.119 141.474 107.57 141.691 105.312C139.463 105.145 136.739 105.193 134.486 105.2L124.026 105.23C124.192 102.242 124.163 99.8514 124.122 96.864C129.729 96.7129 136.007 96.8575 141.669 96.859C141.605 91.5464 141.093 86.3241 140.649 81.0287C140.413 78.2189 139.02 75.1309 141.258 72.6503C142.565 71.2017 144.01 70.596 145.943 70.4564Z" fill="white"/>
<path d="M114.935 82.9561C117.772 83.1197 117.995 85.8449 115.43 87.2155C114.883 88.4005 114.505 89.2277 114.223 90.4915C115.26 91.7453 116.724 92.8585 117.311 94.4498C118.219 96.9127 117.777 99.8481 117.768 102.428C117.764 103.632 117.9 104.913 117.799 106.087C117.753 106.668 117.608 107.238 117.368 107.773C116.308 110.089 113.903 111.314 111.409 111.291C109.546 111.273 107.697 111.27 105.835 111.243C103.215 111.204 100.567 111.431 97.95 111.203C95.44 111.026 93.1934 109.16 92.4592 106.827C92.3094 105.222 92.4333 103.556 92.3992 101.971C92.2738 96.1139 91.552 94.5491 96.1823 90.5129C95.9298 89.5993 95.5528 88.0949 94.9409 87.395C94.4885 86.8733 93.7744 86.4056 93.463 85.7924C92.6582 84.2071 94.5388 82.7105 96.0794 83.2879C96.5389 83.4564 96.9095 83.7987 97.1072 84.2374C97.4909 85.1056 97.1135 85.8697 96.7867 86.6706C97.253 87.6606 97.7918 88.5589 98.3414 89.5047C99.238 89.1385 100.18 88.8883 101.143 88.7608C103.45 88.4342 105.981 88.6463 108.317 88.6519C109.67 88.6553 110.796 89.0018 112.039 89.4946C112.399 88.6331 113.258 87.4899 113.39 86.6121C113.691 84.6084 112.956 84.1357 114.935 82.9561ZM112.386 108.702C113.395 108.481 114.266 108.103 114.851 107.233C115.205 106.708 115.394 106.096 115.486 105.479C115.649 104.378 115.7 98.2275 115.475 97.2834C115.321 96.6357 114.822 95.8534 114.236 95.4996C113 94.7543 100.241 94.9545 98.1473 95.0488C94.5773 95.4371 94.7783 97.1846 94.7798 100.223C94.78 100.929 94.7982 101.656 94.795 102.364C94.8784 105.141 93.9366 107.97 97.7056 108.661C98.4897 108.805 99.29 108.825 100.088 108.821C103.616 108.805 107.143 108.813 110.671 108.798C111.242 108.796 111.822 108.787 112.386 108.702Z" fill="white"/>
<path d="M109.571 97.1237C111.061 96.7926 112.545 97.7022 112.887 99.157C113.229 100.612 112.301 102.062 110.812 102.4C109.319 102.738 107.828 101.828 107.485 100.369C107.142 98.9098 108.077 97.4558 109.571 97.1237Z" fill="white"/>
<path d="M99.7398 97.1582C101.237 96.9058 102.66 97.8876 102.917 99.3504C103.174 100.813 102.166 102.202 100.668 102.451C99.1729 102.699 97.7541 101.718 97.4979 100.257C97.2418 98.7972 98.245 97.4103 99.7398 97.1582Z" fill="white"/>
<path d="M103.311 104.244C105.069 104.232 107.455 104.211 109.175 104.336C109.38 106.111 109.562 106.71 107.549 106.671C105.394 106.684 103.239 106.68 101.084 106.658C100.773 104.307 100.848 104.272 103.311 104.244Z" fill="white"/>
<path d="M160.441 79.734C162.388 79.5434 164.111 80.0793 165.493 81.4627C166.664 82.636 166.819 84.0102 167.033 85.5346C168.293 94.5337 168.507 103.663 167.582 112.704C167.348 114.982 167.332 117.786 166.179 119.827C165.385 121.234 163.777 121.87 162.266 122.264C159.974 122.644 156.694 121.042 156.028 118.818C155.371 116.624 156.03 113.723 156.311 111.495C156.455 110.312 156.563 109.125 156.634 107.935C156.934 102.852 156.855 97.7534 156.398 92.6809C156.224 90.5159 155.949 88.334 155.752 86.1695C155.423 82.5737 156.949 80.6946 160.441 79.734Z" fill="white"/>
<path d="M134.713 62.3809C139.309 61.7976 140.21 66.9952 136.935 68.4814C136.169 68.8327 135.291 68.8697 134.496 68.584C133.423 68.1961 132.924 67.5006 132.459 66.5567C129.457 66.5394 126.454 66.5387 123.452 66.5548C123.531 67.7633 123.491 69.206 123.476 70.4226L117.277 70.4347L111.822 75.7437C111.361 76.2004 110.78 76.7331 110.66 77.3764C110.354 79.0121 110.459 80.8274 110.471 82.4921C110.523 83.572 110.796 85.5567 110.109 86.4786C109.808 86.8815 109.112 86.7539 108.759 86.4146C108.429 85.2434 108.513 78.129 108.621 76.5994C109.698 74.9855 115.019 69.7089 116.655 68.6032C118.01 68.529 120.287 68.5159 121.631 68.5508C121.621 67.7898 121.482 65.5882 121.931 65.1021C122.9 64.7014 130.925 64.6751 132.272 64.7796C132.968 63.4748 133.389 63.0355 134.713 62.3809ZM135.892 66.8731C136.383 66.7812 136.786 66.4384 136.947 65.9757C137.108 65.5128 137.002 65.0013 136.669 64.6362C136.336 64.2713 135.828 64.1093 135.338 64.2119C134.594 64.3681 134.116 65.0805 134.268 65.8095C134.419 66.5387 135.144 67.013 135.892 66.8731Z" fill="white"/>
<path d="M108.805 113.281C111.346 113.248 110.448 115.666 110.509 117.592C112.156 119.436 115.474 121.983 116.708 123.8C117.057 128.576 116.528 134.258 116.847 139.201L126.727 139.199C126.777 138.86 126.834 138.522 126.9 138.186C126.966 137.864 127.037 137.624 127.323 137.436C128.267 137.252 131.442 137.218 132.304 137.6C132.639 138.222 132.522 139.975 132.513 140.753C132.515 141.279 132.583 141.874 132.273 142.296C131.438 142.624 128.178 142.553 127.149 142.511C126.918 141.834 126.86 141.635 126.762 140.926C122.896 140.873 118.912 140.869 115.043 140.886C114.855 139.749 114.925 136.568 114.927 135.328C114.946 131.75 114.945 128.172 114.922 124.594C113.151 122.41 110.333 120.628 108.943 118.302C108.353 117.316 108.405 114.404 108.805 113.281ZM128.747 139.162C128.767 139.721 128.776 140.352 128.818 140.902L130.223 140.93L130.642 140.872C130.893 140.319 130.803 139.763 130.792 139.133L129.96 139.146L128.747 139.162Z" fill="white"/>
<path d="M113.347 113.474C113.411 113.471 113.476 113.466 113.54 113.465C114.451 113.444 115.991 115.202 116.654 115.838C117.822 116.96 120.526 119.399 121.217 120.713C121.807 121.836 121.506 129.436 121.521 131.21C124.058 131.19 126.556 131.306 129.103 131.125C130.606 129.196 132.962 127.693 134.993 130.418C135.615 131.253 135.514 132.36 135.272 133.337C134.189 135.26 132.095 135.746 130.329 134.267C129.942 133.944 129.614 133.441 129.318 133.029C126.461 133.088 122.698 133.131 119.907 132.95C119.624 131.74 119.647 128.931 119.647 127.602L119.631 121.538C117.613 119.081 114.327 116.653 112.27 114.099L113.347 113.474ZM132.658 133.394C133.139 133.301 133.528 132.957 133.672 132.5C133.815 132.042 133.691 131.545 133.347 131.204C133.003 130.864 132.495 130.735 132.025 130.868C131.34 131.063 130.934 131.751 131.104 132.427C131.273 133.104 131.959 133.53 132.658 133.394Z" fill="white"/>
<path d="M83.9968 108.689C85.6953 108.574 87.6509 108.652 89.3667 108.655C90.2799 108.657 91.4492 109.619 90.8553 110.511C90.046 110.769 85.8988 110.614 84.6506 110.675C82.4866 112.493 80.2291 115.187 78.1647 117.163C77.2714 118.018 76.2956 119.2 75.2633 119.879C72.5517 119.97 69.3271 119.943 66.6038 119.882C66.0225 120.871 65.9044 121.084 64.9495 121.791C64.2074 122.067 63.7616 122.18 62.9542 122.039C62.1035 121.882 61.359 121.385 60.9009 120.668C60.4314 119.927 60.2893 119.032 60.5069 118.187C60.9494 116.456 62.7413 115.592 64.4875 116.078C65.5299 116.368 66.1248 117.168 66.6155 118.063C68.3731 117.852 72.6191 117.977 74.5286 117.984C75.6615 117.031 76.6797 115.904 77.7097 114.842C78.9464 113.579 80.1919 112.324 81.4459 111.078C82.1292 110.396 83.2425 109.223 83.9968 108.689ZM63.991 120.181C64.6168 119.917 64.9174 119.217 64.672 118.596C64.4267 117.974 63.7229 117.653 63.0772 117.867C62.6355 118.014 62.3118 118.384 62.2332 118.833C62.1549 119.282 62.3345 119.737 62.7012 120.018C63.068 120.3 63.563 120.362 63.991 120.181Z" fill="white"/>
<path d="M62.6754 81.1576C64.7499 81.0821 65.8235 81.3248 66.5312 83.4273C67.6374 83.3703 70.8388 83.0657 71.646 83.6639C74.6407 85.8822 77.4431 89.1341 80.101 91.7649C82.1162 91.7946 84.1319 91.8074 86.1473 91.8034C87.4829 91.7898 90.0029 91.6655 91.1838 91.8722L91.2923 92.0739C91.2619 92.6814 90.8525 93.1345 90.478 93.5933C89.5666 93.6708 88.4236 93.6347 87.4921 93.6294C84.7912 93.6207 82.01 93.6428 79.3162 93.5747C78.4673 92.9957 77.6774 92.1075 76.9194 91.4105C74.8265 89.485 72.7892 87.0474 70.615 85.2665C69.2848 85.1695 67.9145 85.2462 66.5813 85.3006C65.7315 86.6001 64.578 87.5898 62.8898 87.1858C62.0349 86.9757 61.31 86.4239 60.8927 85.6655C59.8114 83.7241 60.8176 82.0581 62.6754 81.1576ZM63.8881 85.3777C64.5787 85.185 64.9793 84.4826 64.7833 83.8077C64.5875 83.1328 63.8691 82.7401 63.1776 82.9301C62.484 83.1207 62.0807 83.8248 62.2771 84.5016C62.4736 85.1785 63.1954 85.571 63.8881 85.3777Z" fill="white"/>
<path d="M67.709 69.4277C71.2118 69.1357 71.5933 71.4092 71.2313 74.1546C71.7924 74.7881 72.6959 75.6059 73.3193 76.2152L77.7317 80.5111C80.0585 82.7928 82.6479 85.6571 85.125 87.6686C86.106 87.6801 90.8463 87.6119 91.3096 87.9894C91.5058 88.4883 91.4553 88.9614 91.4536 89.5038C90.7825 89.5278 90.0917 89.5339 89.4185 89.5477C87.9986 89.5947 85.852 89.9159 84.5138 89.4459C82.7338 88.8206 75.5322 81.185 73.7216 79.2803C72.5459 78.0437 71.3973 76.6074 70.0305 75.5771C69.9956 75.5507 69.9601 75.5254 69.9248 75.4995C68.8638 75.5298 68.1494 75.5833 67.1261 75.1225C65.5001 74.3902 64.7567 72.4649 65.6397 70.9072C66.092 70.1094 66.8246 69.6887 67.709 69.4277ZM68.8317 73.7241C70.411 72.3599 69.9513 71.3898 68.0155 71.0083C66.4546 71.9543 67.1441 73.8894 68.8317 73.7241Z" fill="white"/>
<path d="M63.3255 100.627C67.54 100.438 71.9773 100.66 76.2079 100.604C78.8123 100.569 81.4633 100.66 84.0694 100.672C84.7458 100.675 85.665 100.892 85.8745 101.609C85.8214 102.019 85.8026 102.005 85.5505 102.355C84.6652 102.69 71.3411 102.485 69.4611 102.484C67.6543 102.488 65.8477 102.505 64.0414 102.534C63.2791 103.087 61.9465 104.479 61.4027 105.228C61.517 107.984 61.3047 108.923 58.4622 109.842C57.0502 109.409 55.7891 108.715 55.3818 107.209C55.1758 106.425 55.2954 105.594 55.7146 104.896C56.3123 103.902 57.1399 103.597 58.1934 103.342C58.9447 103.522 59.1722 103.589 59.8739 103.899C61.0167 102.686 61.9463 101.577 63.3255 100.627ZM58.564 107.882C59.056 107.809 59.4677 107.48 59.6379 107.024C59.8078 106.567 59.7089 106.056 59.38 105.692C59.0509 105.327 58.5443 105.168 58.0594 105.275C57.3461 105.434 56.889 106.115 57.0249 106.816C57.1608 107.518 57.8411 107.989 58.564 107.882Z" fill="white"/>
<path d="M92.9759 111.375C93.9408 111.671 94.2062 111.842 94.9113 112.512C95.0153 113.89 94.913 116.061 94.8852 117.499C91.9861 120.175 89.2489 123.054 86.4164 125.8C85.6036 126.588 84.7191 127.493 84.0029 128.361C83.9971 129.537 83.9776 130.646 84.0694 131.821C84.7932 132.446 85.4397 132.956 85.8114 133.857C86.6081 135.788 85.6072 137.164 83.7782 137.84C81.4507 138.373 79.2974 136.793 79.8136 134.386C80.085 133.121 81.058 132.448 82.0805 131.792C81.9945 130.418 81.9538 128.957 82.0985 127.592C82.7955 126.683 84.8732 124.689 85.7709 123.787C88.1429 121.376 90.5401 118.989 92.9622 116.625C93.03 114.913 92.9885 113.096 92.9759 111.375ZM83.0946 136.189C83.8043 136.096 84.3076 135.466 84.2274 134.771C84.1473 134.077 83.513 133.572 82.8 133.635C82.3251 133.678 81.9108 133.967 81.7171 134.393C81.5233 134.818 81.5804 135.313 81.8663 135.686C82.1522 136.059 82.6221 136.251 83.0946 136.189Z" fill="white"/>
<path d="M89.7644 111.929C91.4053 112.225 90.9711 113.166 90.1029 114.073C88.0513 116.216 85.9179 118.288 83.8173 120.386C80.6828 123.509 77.6113 126.691 74.6044 129.931C75.6686 132.928 74.4402 136.238 70.7847 134.841C68.9648 133.625 68.2188 131.729 69.8315 129.88C70.6616 128.927 71.6585 128.791 72.8671 128.72C73.8269 127.996 76.3975 125.136 77.3577 124.135C79.9212 121.501 82.5121 118.893 85.13 116.31C86.3517 115.109 88.465 112.971 89.7644 111.929ZM72.449 133.374C73.9018 132.151 73.5241 130.927 71.5808 130.824C69.9798 131.963 70.799 133.113 72.449 133.374Z" fill="white"/>
<path d="M106.794 121.157C108.04 121.747 111.581 125.246 112.385 126.441C112.6 131.802 112.264 137.649 112.383 143.109C113.205 143.595 113.796 143.992 114.261 144.871C114.676 145.64 114.741 146.544 114.44 147.361C114.018 148.499 113.169 149.072 112.114 149.563C110.69 149.726 109.348 149.21 108.631 147.953C108.188 147.173 108.086 146.251 108.347 145.396C108.719 144.155 109.475 143.63 110.546 143.05C110.483 137.766 110.472 132.481 110.511 127.196C109.416 125.808 107.745 124.494 106.83 123.243C106.781 122.653 106.799 121.77 106.794 121.157ZM111.97 147.648C113.689 146.325 112.575 144.925 110.714 145.005C109.141 146.189 110.129 148.007 111.97 147.648Z" fill="white"/>
<path d="M94.3649 120.792L94.6623 120.886C96.2243 122.351 90.5533 127.35 89.4942 128.445C90.7108 129.737 93.2531 131.893 94.0989 133.253C94.2324 135.261 94.1416 137.908 94.1491 139.979C97.2793 141.977 96.8363 146.165 92.4992 146.011C91.7042 145.764 91.0834 145.473 90.5576 144.803C90.0733 144.178 89.8721 143.388 90.0008 142.615C90.2222 141.294 91.2259 140.523 92.2632 139.825C92.1743 137.92 92.1831 135.802 92.1983 133.897C90.7825 132.396 88.2061 130.23 87.2344 128.609C88.1143 126.685 92.6184 122.36 94.3649 120.792ZM93.4637 144.199C93.9065 144.052 94.2339 143.683 94.3203 143.234C94.4068 142.785 94.239 142.325 93.8812 142.031C93.5236 141.737 93.0312 141.654 92.5929 141.813C91.9289 142.055 91.5867 142.773 91.8247 143.425C92.0626 144.077 92.7926 144.422 93.4637 144.199Z" fill="white"/>
<path d="M89.2696 55.5394C90.6174 55.46 91.9564 55.7382 92.7698 56.8921C93.22 57.5404 93.3771 58.3413 93.2038 59.106C92.9033 60.3935 91.8622 61.0249 90.8252 61.6809C90.8986 64.6544 90.8444 67.7557 90.8519 70.7442C91.9444 71.9944 93.7341 73.694 94.9393 74.9321C95.0247 76.4043 94.9132 79.3985 94.8488 80.9079C94.2774 81.2776 93.684 81.2538 93.0086 81.2987C92.9902 79.4367 92.9879 77.5747 93.0013 75.7128C92.2157 74.887 89.1249 72.1972 89.055 71.5783C88.7928 69.2601 88.9259 63.9697 88.9377 61.656C86.35 59.7111 85.9224 56.9044 89.2696 55.5394ZM90.4365 59.7799C91.091 59.5936 91.4751 58.9328 91.3035 58.2886C91.1318 57.6443 90.4667 57.2501 89.8025 57.3987C89.355 57.499 88.9987 57.8286 88.8724 58.2596C88.7462 58.6905 88.8696 59.1545 89.1949 59.4707C89.5202 59.787 89.9959 59.9053 90.4365 59.7799Z" fill="white"/>
<path d="M82.4351 63.0835C84.4304 63.1192 85.9777 63.9431 85.8794 66.1579C85.8193 67.5126 84.8897 68.3123 83.9072 69.1372L83.9363 72.6714C85.3628 74.3482 87.4579 76.1031 89.009 77.7231C89.7779 78.5259 90.6679 79.248 91.2932 80.1841C91.431 81.2113 91.6521 85.2722 90.9373 85.914L89.4581 85.9287L89.4374 80.7214C87.1185 78.5664 84.742 76.3638 82.5967 74.0347C81.5457 72.8935 81.7462 70.7229 81.9048 69.1758C81.5123 68.8789 81.0227 68.5367 80.6976 68.1783C78.8752 66.1688 79.7132 63.5895 82.4351 63.0835ZM83.1186 67.2693C83.577 67.1611 83.9387 66.8179 84.0628 66.3736C84.1869 65.9294 84.0538 65.4544 83.7155 65.1338C83.3771 64.8132 82.8868 64.6976 82.436 64.8322C81.7668 65.032 81.3814 65.7152 81.566 66.3744C81.7507 67.0336 82.4385 67.4301 83.1186 67.2693Z" fill="white"/>
<path d="M68.7468 88.9048C69.7914 88.8398 70.8239 89.0022 71.6459 89.6904C72.2731 90.2171 72.6549 90.9695 72.7037 91.776C72.7904 93.1034 72.1105 93.9402 71.2926 94.8621C71.2656 95.2897 71.2746 95.7767 71.2714 96.2101L81.2203 96.2256C82.2053 96.2258 85.4292 96.1483 86.2497 96.2841C86.7059 96.8539 86.0549 97.8506 85.6098 98.2747C80.2727 98.3323 74.6427 98.2021 69.278 98.1695C69.242 97.2683 69.2801 96.229 69.2923 95.3173C68.22 94.8914 67.2587 94.3429 66.704 93.2979C66.3209 92.5886 66.2503 91.7574 66.5086 90.9962C66.8915 89.8879 67.7365 89.3648 68.7468 88.9048ZM69.8774 93.2946C71.4809 92.2183 71.1231 90.7162 69.1434 90.7302C67.6591 91.7879 68.2401 92.9698 69.8774 93.2946Z" fill="white"/>
<path d="M79.3997 104.209C81.1971 104.19 83.0535 104.122 84.8413 104.218C85.8801 104.273 86.6954 104.873 86.5043 105.951C85.8931 106.535 81.3574 106.192 80.0486 106.251C78.0329 107.599 76.8169 109.476 75.265 110.582C74.1173 110.673 72.7828 110.593 71.553 110.676C70.9694 111.562 70.7605 111.835 69.8793 112.438C68.4322 112.92 67.0204 112.705 66.0908 111.427C65.5603 110.702 65.3619 109.795 65.543 108.921C65.9066 107.181 67.5627 106.086 69.3717 106.511C70.53 106.783 71.2131 107.802 71.7952 108.74C72.6936 108.726 73.5922 108.721 74.4905 108.723C75.7957 107.48 77.8989 104.886 79.3997 104.209ZM69.0143 110.801C69.7051 110.589 70.105 109.886 69.9238 109.201C69.7427 108.517 69.0442 108.091 68.3348 108.233C67.8428 108.331 67.4463 108.686 67.3038 109.157C67.1613 109.627 67.2959 110.136 67.6539 110.48C68.0119 110.824 68.5349 110.947 69.0143 110.801Z" fill="white"/>
<path d="M132.099 74.3135C132.35 74.3039 132.602 74.3071 132.853 74.3229C134.846 74.4419 136.144 75.7619 135.895 77.7685C135.599 80.1396 132.55 81.4682 130.705 79.7208C130.219 79.2608 130.026 78.9588 129.673 78.402C127.222 78.3439 124.53 78.4657 122.111 78.31C121.672 78.8047 121.027 79.4173 120.548 79.8989C119.79 80.6335 118.059 82.6763 116.962 81.6156C116.459 80.4696 120.318 77.1913 121.252 76.4447C123.588 76.3289 127.187 76.4782 129.606 76.5202C130.273 75.35 130.831 74.8034 132.099 74.3135ZM133.281 78.6304C133.74 78.4699 134.073 78.0793 134.153 77.6097C134.233 77.1403 134.046 76.6654 133.665 76.3689C133.284 76.0725 132.768 76.0006 132.317 76.1814C131.642 76.452 131.311 77.2005 131.573 77.8661C131.835 78.532 132.594 78.8714 133.281 78.6304Z" fill="white"/>
<path d="M122.461 107.022C122.62 107.065 122.594 107.069 122.738 107.163C123.014 107.879 122.885 109.899 122.864 110.752C124.285 112.37 126.169 114.106 127.746 115.597C129.324 115.235 130.922 115.099 132.072 116.467C132.526 117.01 132.739 117.708 132.662 118.405C132.535 119.522 131.796 120.319 130.932 120.973C127.843 122.131 125.952 120.145 126.455 117.103C124.666 115.247 122.68 113.49 120.849 111.652C120.792 110.728 120.661 109.162 120.963 108.319C121.246 107.528 121.751 107.352 122.461 107.022ZM129.86 119.611C131.283 118.401 131.161 117.065 129.026 117.161C127.611 118.155 128.258 119.584 129.86 119.611Z" fill="white"/>
<path d="M96.8037 64.9242C98.4145 64.7758 99.8699 65.1999 100.556 66.7653C100.907 67.5561 100.895 68.4555 100.524 69.2375C100.141 70.0612 99.3917 70.6332 98.532 70.9323C98.5247 73.5302 98.5344 76.1281 98.5609 78.7257C98.5855 80.1028 98.6944 81.5723 98.6758 82.9289C97.8352 82.4514 97.3698 82.0191 96.7958 81.2795C96.6587 80.0265 96.7085 78.2862 96.7139 76.9977C96.7295 74.9587 96.7237 72.9195 96.6961 70.8807C93.7731 69.0818 93.6723 66.5657 96.8037 64.9242ZM98.205 69.0609C99.63 67.6751 98.8314 66.6698 97.0329 66.6405C96.0359 67.9236 96.3387 69.5352 98.205 69.0609Z" fill="white"/>
<path d="M96.7527 113.312C97.2443 113.33 97.6473 113.286 98.0616 113.52C98.2043 113.669 98.2672 113.805 98.2771 114.009C98.4333 117.258 98.2411 120.578 98.3515 123.828C99.8833 124.91 101.433 126.182 100.607 128.347C100.262 129.251 99.3826 129.743 98.5161 130.119C95.203 130.831 93.4426 127.298 95.3861 124.866C95.7463 124.416 96.1574 124.131 96.6192 123.794C96.6693 122.175 96.4874 114.284 96.7527 113.312ZM97.983 128.415C99.3126 127.267 99.4091 126.168 97.3952 125.933C95.886 126.501 96.3177 128.105 97.5193 128.362C97.6714 128.396 97.827 128.414 97.983 128.415Z" fill="white"/>
<path d="M127.268 82.8015C127.735 82.7757 128.062 82.7663 128.522 82.8832C129.39 83.1016 130.121 83.6705 130.534 84.4473C131.315 85.8947 130.939 87.8187 129.322 88.536C128.22 89.0244 127.062 88.8246 125.964 88.4564C125.076 89.3314 123.938 90.4022 123.162 91.3374C123.119 91.7688 123.125 92.316 123.116 92.758C123.138 93.4247 123.266 94.0812 122.693 94.527C122.233 94.6729 121.774 94.6844 121.329 94.4687C120.988 93.9959 121.135 91.3126 121.163 90.5476C122.017 89.498 123.668 88.0908 124.701 86.9936C124.766 84.8904 124.813 83.4291 127.268 82.8015ZM128.159 87.0669C128.603 86.9413 128.942 86.5896 129.043 86.1492C129.145 85.7089 128.992 85.2493 128.646 84.9502C128.3 84.6511 127.814 84.5596 127.379 84.7115C126.734 84.9368 126.389 85.6217 126.6 86.2585C126.81 86.8951 127.501 87.2532 128.159 87.0669Z" fill="white"/>
<path d="M132.971 87.8682C134.23 87.8439 138.384 87.4157 138.829 88.6689C139.296 89.9851 139.181 92.4693 138.836 93.8696C138.745 94.2389 138.442 94.4185 138.124 94.5691C136.649 94.7443 133.752 95.0037 132.516 94.1846C132.102 93.5645 132.081 92.6675 132.111 91.9408C132.166 90.6448 131.948 88.8277 132.971 87.8682ZM133.864 92.9369C134.952 92.867 136.098 92.8813 137.192 92.8758C137.526 92.448 137.346 90.1885 137.321 89.5124C136.293 89.475 135.065 89.3997 134.053 89.4472C133.767 90.219 133.857 92.0448 133.864 92.9369Z" fill="white"/>
<path d="M108.78 55.8634C110.465 55.8373 112.654 55.8588 114.331 55.9472C115.003 57.3876 115.059 60.615 114.728 62.2467C114.7 62.3836 114.588 62.3859 114.431 62.4465C113.615 62.4569 108.513 62.7019 108.335 62.1123C107.874 60.5893 107.939 57.99 108.205 56.3878C108.259 56.0636 108.528 55.9723 108.78 55.8634ZM109.803 60.8276L113.031 60.828C113.218 60.5431 113.138 58.1012 113.132 57.6608C111.983 57.5749 111.09 57.5667 109.933 57.6079C109.629 58.0606 109.775 60.1431 109.803 60.8276Z" fill="white"/>
<path d="M128.317 72.0828C129.964 71.6838 130.889 73.89 128.956 74.0735C127.965 74.1676 126.844 74.1212 125.838 74.1158L120.11 74.0853C118.235 76.1786 115.381 78.6993 113.287 80.8382C112.99 81.07 112.973 81.0594 112.629 81.1812C112.018 81.051 111.956 80.5448 112.07 80.0392C112.156 79.6564 112.588 78.8201 112.864 78.5742C114.657 76.9778 117.53 73.4154 119.478 72.245C121.822 72.1905 126.2 72.4624 128.317 72.0828Z" fill="white"/>
<path d="M133.965 107.586C137.03 107.497 138.945 107.043 138.709 111.003C138.64 112.159 138.718 113.755 137.225 113.895C136.171 113.924 133.629 114.098 132.908 113.581C131.947 112.891 132.012 109.148 132.744 108.191C133.126 107.691 133.429 107.675 133.965 107.586ZM134.023 112.257C134.801 112.261 135.614 112.276 136.389 112.258C136.561 112.249 136.838 112.277 136.894 112.167C137.166 111.628 136.989 109.944 136.963 109.343C136.181 109.275 135.648 109.233 134.866 109.247C134.669 109.261 134.335 109.241 134.234 109.353C133.732 109.908 133.97 111.514 134.023 112.257Z" fill="white"/>
<path d="M59.1632 90.887C60.3437 90.7162 61.5269 91.1798 62.2592 92.1002C62.9915 93.0206 63.159 94.255 62.6977 95.3299C62.2365 96.405 61.2179 97.1538 60.0325 97.2893C58.2381 97.4945 56.6074 96.2553 56.3699 94.5062C56.1324 92.7573 57.3761 91.1457 59.1632 90.887ZM60.3411 95.3809C62.0679 94.0159 60.9991 92.6616 59.1664 92.7529C59.0941 92.7569 59.0216 92.7619 58.9492 92.7686C57.5441 94.3206 58.4585 95.9701 60.3411 95.3809Z" fill="white"/>
<path d="M125.551 122.813C128.887 122.76 129.32 122.977 129.144 126.45C129.055 128.222 128.698 128.373 127.052 128.412C126.09 128.427 124.697 128.56 123.885 128.107C123.173 127.014 122.87 124.29 123.878 123.247C124.317 122.792 124.955 122.837 125.551 122.813ZM125.203 126.859L127.364 126.856C127.345 126.131 127.341 125.338 127.3 124.62C126.61 124.606 125.921 124.599 125.231 124.599C125.195 125.403 125.181 126.056 125.203 126.859Z" fill="white"/>
<path d="M119.738 96.1416C122.567 96.2231 122.254 99.6093 122.215 101.569C122.187 102.975 122.252 104 121.287 105.128C120.651 105.529 119.798 105.768 119.249 105.101C118.988 104.099 119.032 97.7664 119.214 96.3698C119.226 96.2752 119.588 96.1909 119.738 96.1416Z" fill="white"/>
<path d="M90.0132 95.9229C90.5065 95.9291 90.5906 95.8951 90.8861 96.2506C91.1752 97.7008 91.0306 103.535 90.9133 105.316C90.9011 105.499 90.6574 105.59 90.5011 105.669C90.0663 105.671 90 105.608 89.5931 105.415C88.3342 104.502 88.0299 103.822 88.0352 102.262C88.0408 100.693 88.1189 99.1392 88.2045 97.5731C88.8304 96.7649 89.1709 96.4794 90.0132 95.9229Z" fill="white"/>
<path d="M125.783 68.3647C127.222 68.4082 128.208 69.2522 127.057 70.4775C125.487 70.5946 124.857 69.6595 125.783 68.3647Z" fill="white"/>
<path d="M118.606 64.3716C119.996 64.4763 120.684 65.9092 119.274 66.5297C117.746 66.1987 117.106 65.4655 118.606 64.3716Z" fill="white"/>
</svg>
